<mxfile host="Electron" agent="Mozilla/5.0 (Windows NT 10.0; Win64; x64) AppleWebKit/537.36 (KHTML, like Gecko) draw.io/24.7.17 Chrome/128.0.6613.36 Electron/32.0.1 Safari/537.36" version="24.7.17" pages="2">
  <diagram id="C5RBs43oDa-KdzZeNtuy" name="Authentication">
    <mxGraphModel dx="1075" dy="546" grid="1" gridSize="10" guides="1" tooltips="1" connect="1" arrows="1" fold="1" page="1" pageScale="1" pageWidth="827" pageHeight="1169" math="0" shadow="0">
      <root>
        <mxCell id="WIyWlLk6GJQsqaUBKTNV-0" />
        <mxCell id="WIyWlLk6GJQsqaUBKTNV-1" parent="WIyWlLk6GJQsqaUBKTNV-0" />
        <mxCell id="wPZBfNxIu4Lczjp4vd2N-2" value="" style="edgeStyle=orthogonalEdgeStyle;rounded=0;orthogonalLoop=1;jettySize=auto;html=1;" edge="1" parent="WIyWlLk6GJQsqaUBKTNV-1" source="wPZBfNxIu4Lczjp4vd2N-0" target="wPZBfNxIu4Lczjp4vd2N-1">
          <mxGeometry relative="1" as="geometry" />
        </mxCell>
        <mxCell id="wPZBfNxIu4Lczjp4vd2N-0" value="START" style="ellipse;whiteSpace=wrap;html=1;" vertex="1" parent="WIyWlLk6GJQsqaUBKTNV-1">
          <mxGeometry x="367.5" y="30" width="95" height="70" as="geometry" />
        </mxCell>
        <mxCell id="wPZBfNxIu4Lczjp4vd2N-23" style="edgeStyle=orthogonalEdgeStyle;rounded=0;orthogonalLoop=1;jettySize=auto;html=1;entryX=0.5;entryY=0;entryDx=0;entryDy=0;" edge="1" parent="WIyWlLk6GJQsqaUBKTNV-1" source="wPZBfNxIu4Lczjp4vd2N-1" target="wPZBfNxIu4Lczjp4vd2N-6">
          <mxGeometry relative="1" as="geometry" />
        </mxCell>
        <mxCell id="wPZBfNxIu4Lczjp4vd2N-1" value="Send login&lt;div&gt;credentials to&lt;div&gt;the backend&lt;/div&gt;&lt;/div&gt;&lt;div&gt;through axios&lt;/div&gt;" style="shape=parallelogram;perimeter=parallelogramPerimeter;whiteSpace=wrap;html=1;fixedSize=1;" vertex="1" parent="WIyWlLk6GJQsqaUBKTNV-1">
          <mxGeometry x="347" y="150" width="136" height="70" as="geometry" />
        </mxCell>
        <mxCell id="wPZBfNxIu4Lczjp4vd2N-13" value="" style="edgeStyle=orthogonalEdgeStyle;rounded=0;orthogonalLoop=1;jettySize=auto;html=1;entryX=0.5;entryY=0;entryDx=0;entryDy=0;" edge="1" parent="WIyWlLk6GJQsqaUBKTNV-1" source="wPZBfNxIu4Lczjp4vd2N-6" target="wPZBfNxIu4Lczjp4vd2N-12">
          <mxGeometry relative="1" as="geometry">
            <mxPoint x="414" y="440" as="targetPoint" />
            <Array as="points">
              <mxPoint x="414" y="413" />
              <mxPoint x="414" y="413" />
              <mxPoint x="414" y="440" />
            </Array>
          </mxGeometry>
        </mxCell>
        <mxCell id="wPZBfNxIu4Lczjp4vd2N-6" value="Are login&amp;nbsp;&lt;div&gt;credentials&amp;nbsp;&lt;span style=&quot;background-color: initial;&quot;&gt;valid?&lt;/span&gt;&lt;/div&gt;" style="rhombus;whiteSpace=wrap;html=1;" vertex="1" parent="WIyWlLk6GJQsqaUBKTNV-1">
          <mxGeometry x="349.5" y="280" width="129" height="105" as="geometry" />
        </mxCell>
        <mxCell id="wPZBfNxIu4Lczjp4vd2N-8" value="" style="endArrow=classic;html=1;rounded=0;" edge="1" parent="WIyWlLk6GJQsqaUBKTNV-1">
          <mxGeometry width="50" height="50" relative="1" as="geometry">
            <mxPoint x="477" y="332.73" as="sourcePoint" />
            <mxPoint x="547" y="332.73" as="targetPoint" />
          </mxGeometry>
        </mxCell>
        <mxCell id="wPZBfNxIu4Lczjp4vd2N-9" value="Send error&lt;div&gt;message from the backend&lt;/div&gt;" style="shape=parallelogram;perimeter=parallelogramPerimeter;whiteSpace=wrap;html=1;fixedSize=1;" vertex="1" parent="WIyWlLk6GJQsqaUBKTNV-1">
          <mxGeometry x="520" y="302.5" width="130" height="60" as="geometry" />
        </mxCell>
        <mxCell id="wPZBfNxIu4Lczjp4vd2N-10" value="No" style="text;html=1;align=center;verticalAlign=middle;resizable=0;points=[];autosize=1;strokeColor=none;fillColor=none;" vertex="1" parent="WIyWlLk6GJQsqaUBKTNV-1">
          <mxGeometry x="489" y="302.5" width="40" height="30" as="geometry" />
        </mxCell>
        <mxCell id="wPZBfNxIu4Lczjp4vd2N-12" value="Create a refresh&lt;div&gt;and access token&lt;/div&gt;&lt;div&gt;using jwt&lt;/div&gt;" style="shape=parallelogram;perimeter=parallelogramPerimeter;whiteSpace=wrap;html=1;fixedSize=1;" vertex="1" parent="WIyWlLk6GJQsqaUBKTNV-1">
          <mxGeometry x="352" y="440" width="126" height="60" as="geometry" />
        </mxCell>
        <mxCell id="wPZBfNxIu4Lczjp4vd2N-14" value="Yes" style="text;html=1;align=center;verticalAlign=middle;resizable=0;points=[];autosize=1;strokeColor=none;fillColor=none;" vertex="1" parent="WIyWlLk6GJQsqaUBKTNV-1">
          <mxGeometry x="414" y="390" width="40" height="30" as="geometry" />
        </mxCell>
        <mxCell id="wPZBfNxIu4Lczjp4vd2N-27" style="edgeStyle=orthogonalEdgeStyle;rounded=0;orthogonalLoop=1;jettySize=auto;html=1;entryX=0.5;entryY=0;entryDx=0;entryDy=0;" edge="1" parent="WIyWlLk6GJQsqaUBKTNV-1" source="wPZBfNxIu4Lczjp4vd2N-15" target="wPZBfNxIu4Lczjp4vd2N-25">
          <mxGeometry relative="1" as="geometry" />
        </mxCell>
        <mxCell id="wPZBfNxIu4Lczjp4vd2N-15" value="Send a response&lt;div&gt;back with refresh&lt;/div&gt;&lt;div&gt;and access token&lt;/div&gt;&lt;div&gt;using rest framework&lt;/div&gt;" style="shape=parallelogram;perimeter=parallelogramPerimeter;whiteSpace=wrap;html=1;fixedSize=1;" vertex="1" parent="WIyWlLk6GJQsqaUBKTNV-1">
          <mxGeometry x="335" y="540" width="154" height="60" as="geometry" />
        </mxCell>
        <mxCell id="wPZBfNxIu4Lczjp4vd2N-21" style="edgeStyle=orthogonalEdgeStyle;rounded=0;orthogonalLoop=1;jettySize=auto;html=1;entryX=0.52;entryY=0.01;entryDx=0;entryDy=0;entryPerimeter=0;" edge="1" parent="WIyWlLk6GJQsqaUBKTNV-1" source="wPZBfNxIu4Lczjp4vd2N-12" target="wPZBfNxIu4Lczjp4vd2N-15">
          <mxGeometry relative="1" as="geometry" />
        </mxCell>
        <mxCell id="wPZBfNxIu4Lczjp4vd2N-25" value="END" style="ellipse;whiteSpace=wrap;html=1;" vertex="1" parent="WIyWlLk6GJQsqaUBKTNV-1">
          <mxGeometry x="374.5" y="630" width="75" height="50" as="geometry" />
        </mxCell>
      </root>
    </mxGraphModel>
  </diagram>
  <diagram id="yX1W7QwKS7s7zhE-ujDI" name="Communication after Authentication">
    <mxGraphModel dx="1433" dy="728" grid="1" gridSize="10" guides="1" tooltips="1" connect="1" arrows="1" fold="1" page="1" pageScale="1" pageWidth="850" pageHeight="1100" math="0" shadow="0">
      <root>
        <mxCell id="0" />
        <mxCell id="1" parent="0" />
        <mxCell id="W3DSV7snB7x73hZQ8faM-1" value="START" style="ellipse;whiteSpace=wrap;html=1;" vertex="1" parent="1">
          <mxGeometry x="204" y="40" width="95" height="70" as="geometry" />
        </mxCell>
        <mxCell id="W3DSV7snB7x73hZQ8faM-5" value="" style="edgeStyle=orthogonalEdgeStyle;rounded=0;orthogonalLoop=1;jettySize=auto;html=1;" edge="1" parent="1" source="W3DSV7snB7x73hZQ8faM-2" target="W3DSV7snB7x73hZQ8faM-4">
          <mxGeometry relative="1" as="geometry" />
        </mxCell>
        <mxCell id="W3DSV7snB7x73hZQ8faM-18" value="" style="edgeStyle=orthogonalEdgeStyle;rounded=0;orthogonalLoop=1;jettySize=auto;html=1;" edge="1" parent="1" source="W3DSV7snB7x73hZQ8faM-2" target="W3DSV7snB7x73hZQ8faM-17">
          <mxGeometry relative="1" as="geometry" />
        </mxCell>
        <mxCell id="W3DSV7snB7x73hZQ8faM-2" value="Is refreshToken&lt;div&gt;valid?&lt;/div&gt;" style="rhombus;whiteSpace=wrap;html=1;" vertex="1" parent="1">
          <mxGeometry x="193" y="200" width="117" height="110" as="geometry" />
        </mxCell>
        <mxCell id="W3DSV7snB7x73hZQ8faM-3" value="" style="endArrow=classic;html=1;rounded=0;exitX=0.5;exitY=1;exitDx=0;exitDy=0;entryX=0.5;entryY=0;entryDx=0;entryDy=0;" edge="1" parent="1" source="W3DSV7snB7x73hZQ8faM-1" target="W3DSV7snB7x73hZQ8faM-2">
          <mxGeometry width="50" height="50" relative="1" as="geometry">
            <mxPoint x="316.5" y="150" as="sourcePoint" />
            <mxPoint x="366.5" y="100" as="targetPoint" />
          </mxGeometry>
        </mxCell>
        <mxCell id="W3DSV7snB7x73hZQ8faM-10" style="edgeStyle=orthogonalEdgeStyle;rounded=0;orthogonalLoop=1;jettySize=auto;html=1;entryX=0.5;entryY=1;entryDx=0;entryDy=0;" edge="1" parent="1" source="W3DSV7snB7x73hZQ8faM-4" target="W3DSV7snB7x73hZQ8faM-9">
          <mxGeometry relative="1" as="geometry" />
        </mxCell>
        <mxCell id="W3DSV7snB7x73hZQ8faM-15" value="" style="edgeStyle=orthogonalEdgeStyle;rounded=0;orthogonalLoop=1;jettySize=auto;html=1;" edge="1" parent="1" source="W3DSV7snB7x73hZQ8faM-4" target="W3DSV7snB7x73hZQ8faM-14">
          <mxGeometry relative="1" as="geometry" />
        </mxCell>
        <mxCell id="W3DSV7snB7x73hZQ8faM-4" value="Is accessToken&lt;div&gt;valid?&lt;/div&gt;" style="rhombus;whiteSpace=wrap;html=1;" vertex="1" parent="1">
          <mxGeometry x="366.5" y="203.75" width="120" height="102.5" as="geometry" />
        </mxCell>
        <mxCell id="W3DSV7snB7x73hZQ8faM-11" style="edgeStyle=orthogonalEdgeStyle;rounded=0;orthogonalLoop=1;jettySize=auto;html=1;" edge="1" parent="1" source="W3DSV7snB7x73hZQ8faM-9">
          <mxGeometry relative="1" as="geometry">
            <mxPoint x="246.5" y="130" as="targetPoint" />
          </mxGeometry>
        </mxCell>
        <mxCell id="W3DSV7snB7x73hZQ8faM-9" value="Get a new&lt;div&gt;refresh token&lt;/div&gt;" style="shape=parallelogram;perimeter=parallelogramPerimeter;whiteSpace=wrap;html=1;fixedSize=1;" vertex="1" parent="1">
          <mxGeometry x="366.5" y="100" width="120" height="60" as="geometry" />
        </mxCell>
        <mxCell id="W3DSV7snB7x73hZQ8faM-12" value="Yes" style="text;html=1;align=center;verticalAlign=middle;resizable=0;points=[];autosize=1;strokeColor=none;fillColor=none;" vertex="1" parent="1">
          <mxGeometry x="386.5" y="173.75" width="40" height="30" as="geometry" />
        </mxCell>
        <mxCell id="W3DSV7snB7x73hZQ8faM-13" value="No" style="text;html=1;align=center;verticalAlign=middle;resizable=0;points=[];autosize=1;strokeColor=none;fillColor=none;" vertex="1" parent="1">
          <mxGeometry x="316.5" y="230" width="40" height="30" as="geometry" />
        </mxCell>
        <mxCell id="W3DSV7snB7x73hZQ8faM-25" value="" style="edgeStyle=orthogonalEdgeStyle;rounded=0;orthogonalLoop=1;jettySize=auto;html=1;" edge="1" parent="1" source="W3DSV7snB7x73hZQ8faM-14" target="W3DSV7snB7x73hZQ8faM-24">
          <mxGeometry relative="1" as="geometry" />
        </mxCell>
        <mxCell id="W3DSV7snB7x73hZQ8faM-14" value="Redirect to&amp;nbsp;&lt;div&gt;login page&lt;/div&gt;" style="shape=parallelogram;perimeter=parallelogramPerimeter;whiteSpace=wrap;html=1;fixedSize=1;" vertex="1" parent="1">
          <mxGeometry x="546.5" y="225" width="120" height="60" as="geometry" />
        </mxCell>
        <mxCell id="W3DSV7snB7x73hZQ8faM-16" value="No" style="text;html=1;align=center;verticalAlign=middle;resizable=0;points=[];autosize=1;strokeColor=none;fillColor=none;" vertex="1" parent="1">
          <mxGeometry x="496.5" y="230" width="40" height="30" as="geometry" />
        </mxCell>
        <mxCell id="W3DSV7snB7x73hZQ8faM-21" value="" style="edgeStyle=orthogonalEdgeStyle;rounded=0;orthogonalLoop=1;jettySize=auto;html=1;" edge="1" parent="1" source="W3DSV7snB7x73hZQ8faM-17" target="W3DSV7snB7x73hZQ8faM-20">
          <mxGeometry relative="1" as="geometry" />
        </mxCell>
        <mxCell id="W3DSV7snB7x73hZQ8faM-17" value="Make the request&lt;div&gt;to the API&lt;/div&gt;&lt;div&gt;endpoint&lt;/div&gt;" style="shape=parallelogram;perimeter=parallelogramPerimeter;whiteSpace=wrap;html=1;fixedSize=1;" vertex="1" parent="1">
          <mxGeometry x="184" y="350" width="135" height="60" as="geometry" />
        </mxCell>
        <mxCell id="W3DSV7snB7x73hZQ8faM-19" value="Yes" style="text;html=1;align=center;verticalAlign=middle;resizable=0;points=[];autosize=1;strokeColor=none;fillColor=none;" vertex="1" parent="1">
          <mxGeometry x="246.5" y="308" width="40" height="30" as="geometry" />
        </mxCell>
        <mxCell id="W3DSV7snB7x73hZQ8faM-23" style="edgeStyle=orthogonalEdgeStyle;rounded=0;orthogonalLoop=1;jettySize=auto;html=1;" edge="1" parent="1" source="W3DSV7snB7x73hZQ8faM-20" target="W3DSV7snB7x73hZQ8faM-22">
          <mxGeometry relative="1" as="geometry" />
        </mxCell>
        <mxCell id="W3DSV7snB7x73hZQ8faM-20" value="Get return data/message" style="shape=parallelogram;perimeter=parallelogramPerimeter;whiteSpace=wrap;html=1;fixedSize=1;" vertex="1" parent="1">
          <mxGeometry x="191.5" y="450" width="120" height="60" as="geometry" />
        </mxCell>
        <mxCell id="W3DSV7snB7x73hZQ8faM-22" value="END" style="ellipse;whiteSpace=wrap;html=1;" vertex="1" parent="1">
          <mxGeometry x="204" y="560" width="95" height="70" as="geometry" />
        </mxCell>
        <mxCell id="W3DSV7snB7x73hZQ8faM-26" style="edgeStyle=orthogonalEdgeStyle;rounded=0;orthogonalLoop=1;jettySize=auto;html=1;" edge="1" parent="1" source="W3DSV7snB7x73hZQ8faM-24">
          <mxGeometry relative="1" as="geometry">
            <mxPoint x="246.5" y="540" as="targetPoint" />
          </mxGeometry>
        </mxCell>
        <mxCell id="W3DSV7snB7x73hZQ8faM-24" value="" style="shape=waypoint;sketch=0;size=6;pointerEvents=1;points=[];fillColor=default;resizable=0;rotatable=0;perimeter=centerPerimeter;snapToPoint=1;" vertex="1" parent="1">
          <mxGeometry x="596.5" y="530" width="20" height="20" as="geometry" />
        </mxCell>
      </root>
    </mxGraphModel>
  </diagram>
</mxfile>
